<svg width="12" height="13" viewBox="0 0 12 13" fill="none" xmlns="http://www.w3.org/2000/svg">
<path d="M8.908 3.95037C6.89776 4.27638 5.20289 4.26682 3.25091 3.94772C1.91893 3.72998 0.721273 4.8961 1.03759 6.20565L2.1635 10.8669C2.35702 11.6681 3.07529 12.2326 3.90105 12.2326H8.26696C9.09272 12.2326 9.81098 11.6681 10.0045 10.8669L11.1283 6.2146C11.4451 4.90297 10.2424 3.73396 8.908 3.95037Z" fill="#556B2F"/>
<path fill-rule="evenodd" clip-rule="evenodd" d="M0.572927 6.31813C0.166841 4.63695 1.69937 3.21026 3.32778 3.47647C5.22956 3.78736 6.87257 3.79668 8.8313 3.47902C10.4607 3.21476 11.9993 4.64297 11.5925 6.32708L10.4687 10.9794C10.2233 11.9956 9.31258 12.7107 8.26674 12.7107H3.90083C2.85499 12.7107 1.94431 11.9956 1.69883 10.9794L0.572927 6.31813ZM3.17361 4.41956C2.13806 4.25027 1.27527 5.15583 1.50182 6.09376L2.62773 10.755C2.7693 11.3411 3.29514 11.7551 3.90083 11.7551H8.26674C8.87243 11.7551 9.39827 11.3411 9.53984 10.755L10.6636 6.10271C10.8904 5.16355 10.0236 4.25375 8.98428 4.4223C6.92252 4.75667 5.17578 4.74686 3.17361 4.41956Z" fill="#556B2F"/>
<path fill-rule="evenodd" clip-rule="evenodd" d="M5.75542 1.24321C4.78784 1.24321 4.00347 2.02758 4.00347 2.99515L4.00346 5.75515C4.00346 6.01904 3.78954 6.23296 3.52566 6.23296C3.26177 6.23296 3.04785 6.01903 3.04785 5.75515L3.04786 2.99515C3.04786 1.49981 4.26007 0.287598 5.75542 0.287598H6.39248C7.88783 0.287598 9.10004 1.49981 9.10004 2.99516V5.86198C9.10004 6.12587 8.88612 6.33979 8.62224 6.33979C8.35835 6.33979 8.14443 6.12587 8.14443 5.86198V2.99516C8.14443 2.02758 7.36006 1.24321 6.39248 1.24321H5.75542Z" fill="#556B2F"/>
</svg>
