<svg width="44" height="51" viewBox="0 0 44 51" fill="none" xmlns="http://www.w3.org/2000/svg">
<path d="M5.93164 28.483L10.1426 17.2836C10.94 15.163 13.0692 13.8488 15.3221 14.0866L27.8954 15.4136C29.4917 15.582 30.9088 16.5103 31.7008 17.9065L41.1299 34.5269C42.366 36.7058 41.7895 39.4639 39.784 40.9652L29.6383 48.5605C27.7427 49.9796 25.1096 49.8661 23.343 48.2892L7.27545 33.946C5.74222 32.5773 5.2083 30.4068 5.93164 28.483Z" fill="#556B2F"/>
<path d="M19.5933 30.4316C19.41 30.2044 19.2889 29.9697 19.2299 29.7275C19.171 29.4853 19.1679 29.2278 19.2207 28.9551C18.5677 28.8852 18.0184 28.5739 17.5728 28.0213C17.0564 27.381 16.7699 26.5765 16.7132 25.608L18.1278 25.2854C18.1794 25.508 18.2513 25.7398 18.3434 25.9808C18.4449 26.2229 18.608 26.4833 18.8329 26.7622C19.1411 27.1444 19.4654 27.3985 19.8057 27.5246L21.3142 24.6078L22.6078 25.1498L20.9539 28.235C20.8366 28.4489 20.7824 28.6247 20.7912 28.7625C20.8093 28.9012 20.8955 29.0662 21.0496 29.2572L21.1308 29.3579L20.4651 30.0226L19.6745 30.5323L19.5933 30.4316ZM21.0198 29.2204L21.3572 29.6387C21.7445 30.119 22.0581 30.4286 22.298 30.5675C22.542 30.7116 22.7337 30.7274 22.8732 30.615C23.0023 30.5109 23.2931 30.0419 23.7457 29.2082L25.0813 29.7547C24.9477 30.0329 24.7392 30.3714 24.4559 30.7704C24.1818 31.1704 23.9002 31.487 23.611 31.7202C23.0327 32.1866 22.4402 32.3661 21.8337 32.2587C21.2323 32.147 20.6505 31.7427 20.0883 31.0455L19.5636 30.3948L21.0198 29.2204ZM19.0203 30.9735L18.8899 32.1909C19.4309 32.2489 19.7015 32.2779 19.7015 32.2779L20.1073 32.3214L19.9663 33.6367L18.6587 33.4895L18.7892 32.2721C18.2481 32.2141 17.9776 32.1852 17.9776 32.1852L17.5718 32.1417L17.7112 30.8403L19.0203 30.9735ZM24.2457 36.2008C24.1208 36.0459 24.0316 35.8877 23.9781 35.7263C23.4479 36.0516 22.8236 36.1758 22.1053 36.0988C21.387 36.0219 20.6183 35.7767 19.7992 35.3634L20.5218 33.7707C20.9558 33.9918 21.3823 34.1719 21.8015 34.3112C22.2196 34.4598 22.5774 34.5548 22.8749 34.5961C23.1766 34.6426 23.3739 34.6283 23.4669 34.5534C23.6734 34.3868 24.1589 33.7311 24.9232 32.5863L26.1848 33.2948C26.0459 33.5346 25.9001 33.7502 25.7475 33.9414C25.6002 34.171 25.5202 34.3676 25.5074 34.5314C25.5039 34.6961 25.5687 34.8611 25.702 35.0264L25.7707 35.1116L25.1051 35.7763L24.3144 36.286L24.2457 36.2008ZM25.6644 34.9797L26.0579 35.4677C26.491 36.0048 26.9326 36.4625 27.3827 36.841C27.8422 37.2205 28.4129 37.5742 29.0949 37.902C29.0507 37.7416 29.0202 37.6086 29.0032 37.503C28.9472 37.2328 28.8623 36.9689 28.7483 36.7114C28.6385 36.459 28.5191 36.2527 28.39 36.0927C28.1443 35.788 27.7852 35.6386 27.3128 35.6446L27.2658 34.3658C28.4346 34.1136 29.2896 34.3231 29.831 34.9945C30.0101 35.2165 30.1468 35.46 30.2411 35.7249C30.3405 35.9856 30.4468 36.4027 30.5599 36.9762C30.6475 37.3914 30.7338 37.7309 30.8188 37.9947C30.9131 38.2596 31.0364 38.5394 31.1888 38.8341L29.9095 39.9425C29.7952 39.8642 29.4739 39.7142 28.9457 39.4925C28.8959 39.473 28.7355 39.4063 28.4647 39.2923C27.7206 38.972 27.1221 38.679 26.6693 38.4135C26.2207 38.1531 25.8202 37.8625 25.4677 37.5417C25.1204 37.2167 24.7276 36.7877 24.2893 36.2548L24.2081 36.1541L25.6644 34.9797ZM32.1129 33.5122L31.954 34.9955L30.463 34.8428L30.6234 33.3455L32.1129 33.5122Z" fill="white"/>
<circle cx="6.5973" cy="1.86585" r="1.86585" fill="#FCF8F1"/>
<circle cx="14.6832" cy="18.6586" r="1.86585" fill="#FCF8F1"/>
<path d="M6.60254 2.48779C0.386872 5.04107 0.0140085 9.29652 2.25154 13.1264C4.48907 16.9563 10.5391 18.5167 14.6829 18.6585" stroke="black" stroke-width="1.2439" stroke-linecap="round"/>
</svg>
