<svg width="44" height="51" viewBox="0 0 44 51" fill="none" xmlns="http://www.w3.org/2000/svg">
<path d="M5.93164 28.483L10.1426 17.2836C10.94 15.163 13.0692 13.8488 15.3221 14.0866L27.8954 15.4136C29.4917 15.582 30.9088 16.5103 31.7008 17.9065L41.1299 34.5269C42.366 36.7058 41.7895 39.4639 39.784 40.9652L29.6383 48.5605C27.7427 49.9796 25.1096 49.8661 23.343 48.2892L7.27545 33.946C5.74222 32.5773 5.2083 30.4068 5.93164 28.483Z" fill="#8B3A3A"/>
<path d="M20.3047 30.8336C20.1267 30.6022 20.0159 30.3591 19.9724 30.1044C19.9289 29.8497 19.9518 29.5927 20.0409 29.3333C19.729 29.3376 19.4621 29.2973 19.24 29.2121C19.0221 29.1322 18.8294 28.9936 18.6618 28.7963L18.6556 28.7886L18.6493 28.7808L18.6306 28.7576C18.5285 28.6098 18.4575 28.4796 18.4177 28.3668C17.9299 28.692 17.41 28.8769 16.858 28.9215C16.3059 28.9661 15.7709 28.8734 15.253 28.6434C14.7351 28.4133 14.2825 28.0582 13.8952 27.5779C13.5079 27.0976 13.2505 26.5935 13.1231 26.0656C12.9905 25.5419 13.0128 25.0253 13.1901 24.5159C13.3663 24.0158 13.7075 23.5617 14.2136 23.1536C14.3375 23.0536 14.4325 22.9813 14.4987 22.9364C15.0278 22.578 15.7772 22.2761 16.7471 22.0309L17.0627 23.2466C16.6001 23.381 16.2431 23.4984 15.9917 23.5989C15.7403 23.6993 15.4958 23.8453 15.2583 24.0369C14.525 24.6283 14.5561 25.4171 15.3515 26.4035C15.618 26.734 15.9096 26.9846 16.2263 27.1554C16.542 27.3354 16.8506 27.4275 17.1521 27.4315C17.4536 27.4355 17.7102 27.3521 17.922 27.1814C18.1595 26.9898 18.6179 26.3218 19.2973 25.1774L20.6469 25.7254C20.5059 25.9839 20.3711 26.2077 20.2423 26.3968C20.1157 26.6097 20.0267 26.7794 19.9754 26.906C19.9293 27.0285 19.9142 27.1472 19.9302 27.2621C19.9555 27.378 20.0265 27.5083 20.1431 27.6529C20.3315 27.876 20.583 27.9501 20.8977 27.8753C21.1834 27.8068 21.531 27.6672 21.9405 27.4563L22.6701 28.4403C22.5698 28.4956 22.4365 28.5733 22.27 28.6734C22.1129 28.7745 21.9931 28.8584 21.9105 28.925C21.7762 29.0333 21.6927 29.1518 21.6601 29.2804C21.6316 29.4141 21.6694 29.5456 21.7735 29.6747L21.7798 29.6824C21.8756 29.8012 21.9929 29.8727 22.1318 29.8971C22.2708 29.9214 22.3867 29.8961 22.4797 29.8211C22.6553 29.6795 22.9745 29.1877 23.4375 28.3456L24.7326 28.8736C24.6103 29.1341 24.3992 29.4748 24.0994 29.8956C23.8037 30.3215 23.5112 30.6511 23.222 30.8843C22.9122 31.1342 22.5751 31.308 22.2108 31.4058C21.8516 31.4994 21.5046 31.5023 21.1696 31.4145C20.8346 31.3268 20.5567 31.146 20.336 30.8723L20.3047 30.8336ZM23.7768 25.3106L23.6526 26.5357L22.4135 26.41L22.5532 25.1724L23.7768 25.3106ZM25.2533 25.3343L25.1379 26.4118L24.0527 26.3026L24.1759 25.2189L25.2533 25.3343ZM24.9762 26.7979L24.8458 28.0153L23.6129 27.8973L23.7463 26.6519L24.9762 26.7979ZM20.875 33.6491C21.5745 34.21 22.1584 34.617 22.6266 34.87C23.0949 35.123 23.5025 35.2375 23.8495 35.2133C23.7299 35.0967 23.6181 34.9739 23.514 34.8448C23.1933 34.4471 22.9829 34.033 22.8828 33.6024C22.7868 33.1769 22.8309 32.7877 23.015 32.4347C23.1414 32.1793 23.3441 31.9392 23.6229 31.7143C23.9534 31.4478 24.3376 31.2531 24.7754 31.1301C25.2131 31.0072 25.6332 30.9838 26.0355 31.0599C26.4378 31.136 26.7597 31.3239 27.0012 31.6234C27.2595 31.9436 27.3626 32.3462 27.3106 32.8313C27.2586 33.3164 27.0704 33.8176 26.7461 34.3348C26.4218 34.852 25.9962 35.3231 25.4695 35.7478C24.9531 36.1643 24.3883 36.4152 23.7753 36.5005C23.1664 36.5909 22.5398 36.5167 21.8955 36.2778C21.246 36.0431 20.6104 35.6565 19.9887 35.1181L20.875 33.6491ZM24.531 32.6184C24.514 32.777 24.5749 33.0005 24.7139 33.2891C24.858 33.5734 25.0492 33.8581 25.2876 34.1431C25.5205 33.819 25.6674 33.5045 25.7284 33.1996C25.7935 32.8999 25.7615 32.67 25.6324 32.5099C25.5158 32.3653 25.3513 32.2935 25.1389 32.2943C24.9359 32.2961 24.7698 32.3491 24.6407 32.4532C24.5839 32.499 24.5473 32.5541 24.531 32.6184ZM27.4355 39.6759C27.3106 39.5209 27.2214 39.3628 27.1679 39.2013C26.6376 39.5267 26.0134 39.6509 25.2951 39.5739C24.5767 39.4969 23.808 39.2518 22.989 38.8385L23.7116 37.2458C24.1456 37.4668 24.5721 37.647 24.9912 37.7863C25.4093 37.9349 25.7672 38.0298 26.0647 38.0711C26.3664 38.1176 26.5637 38.1034 26.6566 38.0284C26.8632 37.8618 27.3486 37.2062 28.1129 36.0614L29.3746 36.7698C29.2356 37.0097 29.0899 37.2253 28.9373 37.4165C28.79 37.646 28.71 37.8427 28.6971 38.0064C28.6936 38.1712 28.7585 38.3362 28.8918 38.5014L28.9605 38.5867L28.2948 39.2513L27.5042 39.7611L27.4355 39.6759ZM28.8604 38.4625L28.9666 38.5942C29.4413 39.1829 29.8368 39.631 30.153 39.9385C30.4691 40.246 30.7574 40.4397 31.0178 40.5195C30.9668 40.4669 30.8934 40.3811 30.7976 40.2624C30.4853 39.8751 30.2781 39.4754 30.176 39.0635C30.078 38.6567 30.1133 38.283 30.2819 37.9425C30.4022 37.7006 30.5914 37.4756 30.8496 37.2674C31.1595 37.0175 31.5209 36.8368 31.9339 36.7254C32.352 36.6098 32.755 36.5916 33.1428 36.6709C33.5347 36.7554 33.8473 36.9422 34.0805 37.2314C34.3304 37.5412 34.435 37.9299 34.3944 38.3973C34.3537 38.8648 34.1821 39.3441 33.8794 39.8354C33.5808 40.3318 33.1837 40.7799 32.6879 41.1797C31.9133 41.8044 31.0889 42.0133 30.2147 41.8063C29.3446 41.6046 28.439 40.9202 27.4978 39.7531L27.4041 39.6369L28.8604 38.4625ZM35.9849 35.3761L35.8259 36.8593L34.3349 36.7067L34.4954 35.2094L35.9849 35.3761ZM31.7452 38.1559C31.724 38.3093 31.7834 38.5257 31.9233 38.8049C32.0633 39.084 32.2529 39.3615 32.4923 39.6372C32.7055 39.3204 32.8396 39.0163 32.8944 38.7249C32.9533 38.4387 32.9204 38.2181 32.7954 38.0632C32.683 37.9238 32.5278 37.8529 32.3299 37.8506C32.132 37.8482 31.9737 37.895 31.8549 37.9908C31.7878 38.0449 31.7512 38.0999 31.7452 38.1559Z" fill="white"/>
<circle cx="6.5973" cy="1.86585" r="1.86585" fill="#FCF8F1"/>
<circle cx="14.6832" cy="18.6586" r="1.86585" fill="#FCF8F1"/>
<path d="M6.60254 2.48779C0.386872 5.04107 0.0140085 9.29652 2.25154 13.1264C4.48907 16.9563 10.5391 18.5167 14.6829 18.6585" stroke="black" stroke-width="1.2439" stroke-linecap="round"/>
</svg>
