<svg width="64" height="56" viewBox="0 0 64 56" fill="none" xmlns="http://www.w3.org/2000/svg">
<path d="M42 54.5L37.8908 29.125C37.3348 23.8881 40.5203 23.6421 45.4497 27.2779L45.1783 24.4977C47.8713 23.7077 53.9443 31.4799 54.8708 32.7893C54.8743 32.8112 54.8778 32.8331 54.8812 32.855C55.0358 33.0437 55.0204 33.0008 54.8708 32.7893C53.095 21.641 47.5377 19.2729 42.9131 19.3895C41.6704 19.4209 49.7214 16.0061 54.1782 16.9185L50.3714 14.9247C52.7966 12.8493 58.9848 13.3303 58.9848 13.3303C57.4826 12.6964 56.0532 12.0408 55.7513 11.9522C56.4673 11.9974 63.6165 11.9923 63.6165 11.9923C45.2713 3.6081 36.0162 21.218 36.0162 21.218C35.6785 13.3579 43.3902 8.59673 43.3902 8.59673C43.3902 8.59673 41.8863 7.48752 39.5608 8.09429C43.9818 0.906037 50.7471 4.21896 50.7471 4.21896C45.8366 -2.24083 37.9382 1.87651 35.0644 6.06789C33.0163 9.70132 31.815 14.8462 32.1012 17.3769C31.498 14.7135 28.6892 5.36134 18.7385 3.70128C18.7385 3.70128 24.9364 6.94061 26.2793 10.5933L23.8669 9.63605C23.8669 9.63605 27.9861 13.6105 28.1891 16.4766C24.8559 11.3656 9.21937 4.0467 1.53142 20.6066C1.53142 20.6066 7.06007 14.555 12.9746 14.005C11.7945 14.5395 9.28873 15.8628 8.70651 16.8797C8.70651 16.8797 17.4678 14.7851 19.5907 15.6274C19.5907 15.6274 15.7971 16.462 15.5096 16.9051C15.5096 16.9051 22.8414 17.0923 27.7088 21.3461C23.377 19.3148 6.92135 13.4972 0.67607 33.7397C3.54772 28.6834 7.78764 26.2342 12.1904 25.2698C12.1904 25.2698 8.25341 28.9611 8.97164 28.878C17.0352 24.1977 22.8732 24.5753 26.4979 25.8051C3.49585 28.6039 6.25635 50.9206 10.3185 55.8832C10.1048 47.8352 12.322 42.3137 15.5902 38.0941C14.5564 40.6995 15.2197 43.5316 15.2197 43.5316C19.5051 31.6058 29.504 29.207 29.504 29.207C27.3083 30.0111 15.5127 42.7543 28.6314 55.3315C28.9486 55.5633 25.8465 49.4407 26.5772 44.4642C26.5772 44.4642 26.7978 47.5674 29.0953 48.8142C27.6896 44.9499 27.7508 41.608 28.3954 38.931C28.3954 38.931 28.6694 41.1618 30.1 42.623C29.308 35.0488 30.9331 32.8138 30.9331 32.8138C31.4334 36.532 33.4746 40.8749 35 54.5L42 54.5Z" fill="#C0937B"/>
</svg>
