<svg width="80" height="26" viewBox="0 0 80 26" fill="none" xmlns="http://www.w3.org/2000/svg">
<g clip-path="url(#clip0_117_1149)">
<path d="M67.5305 20.1128C58.3234 14.6969 39.7265 10.7044 11.8884 18.0792" stroke="#556B2F"/>
<path d="M67.1447 20.3105C69.6419 18.7622 74.9027 15.1246 75.9687 12.9602C75.9687 12.9602 66.6086 17.8374 67.1447 20.3105Z" fill="#556B2F"/>
<path d="M66.1715 19.572C68.2535 17.2407 72.4027 11.93 72.3431 9.3369C72.3431 9.3369 63.9549 17.0908 66.1715 19.572Z" fill="#556B2F"/>
<path d="M64.2399 18.6097C65.7948 15.3421 68.5456 8.03348 67.1096 4.9399C67.1096 4.9399 59.988 16.1415 64.2399 18.6097Z" fill="#556B2F"/>
<path d="M61.0783 17.2387C61.7731 13.8828 62.5367 6.40155 60.0323 3.32338C60.0323 3.32338 55.7024 14.8885 61.0783 17.2387Z" fill="#556B2F"/>
<path d="M57.0114 16.1777C56.9607 12.9149 56.1034 5.77615 53.0791 3.32338C53.0791 3.32338 51.4193 14.9004 57.0114 16.1777Z" fill="#556B2F"/>
<path d="M52.7329 15.2531C52.1656 12.0772 50.1665 5.17994 46.7088 2.99806C46.7088 2.99806 46.8546 14.3934 52.7329 15.2531Z" fill="#556B2F"/>
<path d="M47.837 14.6727C46.9205 11.8813 44.2242 5.86052 40.7705 4.10862C40.7705 4.10862 42.3194 14.2265 47.837 14.6727Z" fill="#556B2F"/>
<path d="M43.8536 14.0672C42.0379 11.8076 37.4415 7.04047 33.5806 6.04846C33.5806 6.04846 38.4854 14.5011 43.8536 14.0672Z" fill="#556B2F"/>
<path d="M37.9826 13.7301C35.9975 11.7615 31.0862 7.648 27.3224 6.94373C27.3224 6.94373 32.9668 14.4068 37.9826 13.7301Z" fill="#556B2F"/>
<path d="M32.511 14.0903C30.5732 12.479 25.8499 9.14334 22.4588 8.69114C22.4588 8.69114 28.1429 14.8759 32.511 14.0903Z" fill="#556B2F"/>
<path d="M27.9065 14.4697C26.1157 13.2599 21.8144 10.7889 18.9352 10.5827C18.9352 10.5827 24.3449 15.3082 27.9065 14.4697Z" fill="#556B2F"/>
<path d="M23.5401 14.9204C21.6034 14.1101 17.0652 12.5281 14.4054 12.6826C14.4054 12.6826 20.5353 16.028 23.5401 14.9204Z" fill="#556B2F"/>
<path d="M18.7432 15.849C17.2552 15.3741 13.7424 14.4833 11.5961 14.7198C11.5961 14.7198 16.2431 16.7706 18.7432 15.849Z" fill="#556B2F"/>
<path d="M14.9361 16.7706C13.7922 16.4055 11.0919 15.7207 9.44202 15.9025C9.44202 15.9025 13.0142 17.479 14.9361 16.7706Z" fill="#556B2F"/>
<path d="M12.2098 17.6187C11.3796 17.3538 9.41999 16.8568 8.22263 16.9888C8.22263 16.9888 10.815 18.1328 12.2098 17.6187Z" fill="#556B2F"/>
</g>
<defs>
<clipPath id="clip0_117_1149">
<rect width="80" height="26" fill="white"/>
</clipPath>
</defs>
</svg>
