<svg width="17" height="15" viewBox="0 0 17 15" fill="none" xmlns="http://www.w3.org/2000/svg">
<path fill-rule="evenodd" clip-rule="evenodd" d="M12.9694 2.07195L9.90257 0.924515C9.54036 0.788997 9.13966 0.799486 8.78504 0.953772L1.01394 4.33469C0.258683 4.66327 -0.087201 5.54189 0.241381 6.29715L2.10384 10.578C2.43242 11.3333 3.31104 11.6792 4.0663 11.3506L11.8205 7.97704C12.1851 7.81839 12.4713 7.52067 12.6154 7.15003L13.7536 4.22302C13.3258 4.35515 12.7277 4.42896 12.1604 4.25767C12.1256 4.24718 12.093 4.23667 12.0626 4.22617C11.9273 4.3274 11.7593 4.38736 11.5774 4.38736C11.1298 4.38736 10.7669 4.02449 10.7669 3.57686C10.7669 3.12924 11.1298 2.76636 11.5774 2.76636C12.025 2.76636 12.3879 3.12924 12.3879 3.57686C12.3879 3.62406 12.3839 3.67031 12.3761 3.71529C12.7549 3.79256 13.3522 3.8166 13.83 3.62548C13.9693 3.56976 14.072 3.54927 14.1462 3.55337C14.1992 3.53398 14.2506 3.51462 14.3005 3.49576C14.6895 3.31745 15.2731 2.97704 15.8242 2.50695C15.8242 2.50695 15.631 2.23147 15.5486 2.13412C14.812 2.694 14.2739 2.90399 13.9505 3.03019L13.8805 3.05761C13.7545 2.61947 13.4299 2.24422 12.9694 2.07195ZM4.94407 12.1517C5.04848 12.2668 5.1728 12.3673 5.31549 12.4479L8.97236 14.5135C9.6895 14.9186 10.5992 14.6656 11.0043 13.9485L14.8449 7.1492C15.0405 6.80294 15.0897 6.39291 14.9815 6.01022L14.6258 4.75143L13.2603 8.07423C13.1129 8.43296 12.8315 8.72015 12.4759 8.87488L4.94407 12.1517ZM13.4614 2.20216C13.5588 2.25774 13.6499 2.32423 13.7328 2.40053L13.4614 2.20216ZM11.6262 14.8168L14.6826 14.4572C15.5006 14.361 16.0857 13.6198 15.9895 12.8018L15.4224 7.98128L11.6262 14.8168Z" fill="#8B3A3A"/>
<path d="M9.90257 0.924515L9.89689 0.939697L9.90257 0.924515ZM12.9694 2.07195L12.9638 2.08713L12.9694 2.07195ZM8.78504 0.953772L8.7915 0.968636L8.78504 0.953772ZM1.01394 4.33469L1.0204 4.34955L1.01394 4.33469ZM0.241381 6.29715L0.226517 6.30361L0.241381 6.29715ZM2.10384 10.578L2.1187 10.5716L2.10384 10.578ZM4.0663 11.3506L4.05983 11.3357L4.0663 11.3506ZM11.8205 7.97704L11.8269 7.9919L11.8205 7.97704ZM12.6154 7.15003L12.6306 7.1559L12.6154 7.15003ZM13.7536 4.22302L13.7688 4.2289L13.7809 4.19764L13.7489 4.20753L13.7536 4.22302ZM12.1604 4.25767L12.1557 4.27319L12.1604 4.25767ZM12.0626 4.22617L12.0678 4.21084L12.0597 4.20804L12.0529 4.21319L12.0626 4.22617ZM12.3761 3.71529L12.3601 3.71254L12.3575 3.72803L12.3729 3.73117L12.3761 3.71529ZM13.83 3.62548L13.836 3.64053L13.83 3.62548ZM14.1462 3.55337L14.1452 3.57098L14.1517 3.56859L14.1462 3.55337ZM14.3005 3.49576L14.3062 3.51096L14.3072 3.5105L14.3005 3.49576ZM15.8242 2.50695L15.8347 2.51928L15.846 2.50971L15.8375 2.49764L15.8242 2.50695ZM15.5486 2.13412L15.561 2.12365L15.5511 2.1119L15.5388 2.12121L15.5486 2.13412ZM13.9505 3.03019L13.9446 3.01509L13.9445 3.0151L13.9505 3.03019ZM13.8805 3.05761L13.8649 3.06209L13.8698 3.0792L13.8864 3.07271L13.8805 3.05761ZM5.31549 12.4479L5.32346 12.4338L5.31549 12.4479ZM4.94407 12.1517L4.9376 12.1368L4.91688 12.1458L4.93207 12.1626L4.94407 12.1517ZM8.97236 14.5135L8.98033 14.4994L8.97236 14.5135ZM11.0043 13.9485L11.0184 13.9565L11.0043 13.9485ZM14.8449 7.1492L14.859 7.15717L14.8449 7.1492ZM14.9815 6.01022L14.9659 6.01463L14.9815 6.01022ZM14.6258 4.75143L14.6414 4.74702L14.6287 4.70187L14.6108 4.74527L14.6258 4.75143ZM13.2603 8.07423L13.2753 8.08039L13.2603 8.07423ZM12.4759 8.87488L12.4694 8.86001L12.4759 8.87488ZM13.4614 2.20216L13.4695 2.18808L13.4519 2.21524L13.4614 2.20216ZM13.7328 2.40053L13.7232 2.41362L13.7437 2.3886L13.7328 2.40053ZM14.6826 14.4572L14.6808 14.4411L14.6826 14.4572ZM11.6262 14.8168L11.612 14.8089L11.5966 14.8366L11.628 14.8329L11.6262 14.8168ZM15.9895 12.8018L15.9734 12.8037L15.9895 12.8018ZM15.4224 7.98128L15.4385 7.97938L15.4327 7.92948L15.4083 7.97341L15.4224 7.98128ZM9.89689 0.939697L12.9638 2.08713L12.9751 2.05677L9.90825 0.909333L9.89689 0.939697ZM8.7915 0.968636C9.14227 0.816028 9.53861 0.805652 9.89689 0.939697L9.90825 0.909333C9.5421 0.772341 9.13705 0.782945 8.77857 0.938907L8.7915 0.968636ZM1.0204 4.34955L8.7915 0.968636L8.77857 0.938907L1.00747 4.31982L1.0204 4.34955ZM0.256246 6.29068C-0.0687653 5.54363 0.273359 4.67456 1.0204 4.34955L1.00747 4.31982C0.244007 4.65198 -0.105637 5.54015 0.226517 6.30361L0.256246 6.29068ZM2.1187 10.5716L0.256246 6.29068L0.226517 6.30361L2.08897 10.5845L2.1187 10.5716ZM4.05983 11.3357C3.31278 11.6607 2.44371 11.3186 2.1187 10.5716L2.08897 10.5845C2.42113 11.348 3.3093 11.6976 4.07276 11.3655L4.05983 11.3357ZM11.814 7.96217L4.05983 11.3357L4.07276 11.3655L11.8269 7.9919L11.814 7.96217ZM12.6003 7.14415C12.4578 7.51076 12.1747 7.80525 11.814 7.96217L11.8269 7.9919C12.1956 7.83153 12.4849 7.53057 12.6306 7.1559L12.6003 7.14415ZM13.7385 4.21715L12.6003 7.14415L12.6306 7.1559L13.7688 4.2289L13.7385 4.21715ZM12.1557 4.27319C12.7271 4.44569 13.3285 4.37126 13.7584 4.23851L13.7489 4.20753C13.323 4.33905 12.7284 4.41223 12.1651 4.24216L12.1557 4.27319ZM12.0573 4.24149C12.088 4.25207 12.1207 4.26264 12.1557 4.27319L12.1651 4.24216C12.1305 4.23172 12.0981 4.22128 12.0678 4.21084L12.0573 4.24149ZM11.5774 4.40357C11.763 4.40357 11.9343 4.34241 12.0723 4.23915L12.0529 4.21319C11.9203 4.3124 11.7557 4.37115 11.5774 4.37115V4.40357ZM10.7507 3.57686C10.7507 4.03344 11.1208 4.40357 11.5774 4.40357V4.37115C11.1387 4.37115 10.7831 4.01554 10.7831 3.57686H10.7507ZM11.5774 2.75015C11.1208 2.75015 10.7507 3.12028 10.7507 3.57686H10.7831C10.7831 3.13819 11.1387 2.78257 11.5774 2.78257V2.75015ZM12.4041 3.57686C12.4041 3.12028 12.034 2.75015 11.5774 2.75015V2.78257C12.0161 2.78257 12.3717 3.13819 12.3717 3.57686H12.4041ZM12.3921 3.71804C12.4 3.67215 12.4041 3.62498 12.4041 3.57686H12.3717C12.3717 3.62313 12.3677 3.66846 12.3601 3.71254L12.3921 3.71804ZM13.824 3.61043C13.3502 3.79994 12.7564 3.77633 12.3794 3.69941L12.3729 3.73117C12.7534 3.80879 13.3542 3.83326 13.836 3.64053L13.824 3.61043ZM14.147 3.53718C14.0694 3.53289 13.9642 3.55434 13.824 3.61043L13.836 3.64053C13.9744 3.58518 14.0745 3.56564 14.1453 3.56955L14.147 3.53718ZM14.2947 3.4806C14.2449 3.49945 14.1935 3.51879 14.1406 3.53814L14.1517 3.56859C14.2048 3.54917 14.2563 3.52979 14.3062 3.51092L14.2947 3.4806ZM15.8137 2.49462C15.2638 2.96366 14.6815 3.30329 14.2937 3.48102L14.3072 3.5105C14.6975 3.33161 15.2824 2.99042 15.8347 2.51928L15.8137 2.49462ZM15.5363 2.14459C15.577 2.19271 15.6455 2.2854 15.7042 2.36654C15.7334 2.40701 15.7601 2.44444 15.7795 2.47176C15.7892 2.48542 15.7971 2.49655 15.8025 2.50426C15.8052 2.50812 15.8073 2.51112 15.8088 2.51315C15.8095 2.51417 15.81 2.51495 15.8104 2.51547C15.8106 2.51573 15.8107 2.51593 15.8108 2.51606C15.8109 2.51613 15.8109 2.51617 15.8109 2.51621C15.8109 2.51622 15.8109 2.51624 15.8109 2.51624C15.8109 2.51625 15.8109 2.51625 15.8109 2.51625C15.8109 2.51626 15.8109 2.51626 15.8242 2.50695C15.8375 2.49764 15.8375 2.49764 15.8375 2.49764C15.8375 2.49764 15.8375 2.49763 15.8375 2.49763C15.8375 2.49762 15.8375 2.49761 15.8375 2.49759C15.8374 2.49755 15.8374 2.4975 15.8373 2.49744C15.8372 2.4973 15.8371 2.4971 15.8369 2.49684C15.8366 2.49631 15.836 2.49553 15.8353 2.49451C15.8338 2.49246 15.8317 2.48945 15.829 2.48558C15.8236 2.47785 15.8157 2.46669 15.806 2.45301C15.7865 2.42563 15.7598 2.38811 15.7305 2.34754C15.6719 2.26661 15.6027 2.17288 15.561 2.12365L15.5363 2.14459ZM13.9563 3.04529C14.2804 2.91883 14.8201 2.7082 15.5585 2.14702L15.5388 2.12121C14.8039 2.6798 14.2673 2.88914 13.9446 3.01509L13.9563 3.04529ZM13.8864 3.07271L13.9564 3.04528L13.9445 3.0151L13.8746 3.04252L13.8864 3.07271ZM12.9638 2.08713C13.4192 2.25753 13.7403 2.62867 13.8649 3.06209L13.8961 3.05313C13.7687 2.61028 13.4406 2.23092 12.9751 2.05677L12.9638 2.08713ZM5.32346 12.4338C5.1823 12.3541 5.05934 12.2546 4.95607 12.1408L4.93207 12.1626C5.03763 12.2789 5.1633 12.3806 5.30752 12.4621L5.32346 12.4338ZM8.98033 14.4994L5.32346 12.4338L5.30752 12.4621L8.96439 14.5276L8.98033 14.4994ZM10.9902 13.9405C10.5895 14.6499 9.68967 14.9001 8.98033 14.4994L8.96439 14.5276C9.68932 14.9371 10.6089 14.6814 11.0184 13.9565L10.9902 13.9405ZM14.8308 7.14123L10.9902 13.9405L11.0184 13.9565L14.859 7.15717L14.8308 7.14123ZM14.9659 6.01463C15.0729 6.39316 15.0242 6.79873 14.8308 7.14123L14.859 7.15717C15.0567 6.80715 15.1064 6.39266 14.9971 6.00581L14.9659 6.01463ZM14.6102 4.75584L14.9659 6.01463L14.9971 6.00581L14.6414 4.74702L14.6102 4.75584ZM13.2753 8.08039L14.6408 4.75759L14.6108 4.74527L13.2453 8.06807L13.2753 8.08039ZM12.4824 8.88974C12.8419 8.73334 13.1263 8.44302 13.2753 8.08039L13.2453 8.06807C13.0995 8.4229 12.8212 8.70697 12.4694 8.86001L12.4824 8.88974ZM4.95054 12.1666L12.4824 8.88974L12.4694 8.86001L4.9376 12.1368L4.95054 12.1666ZM13.4534 2.21623C13.5497 2.27121 13.6398 2.33699 13.7218 2.41246L13.7437 2.3886C13.6599 2.31147 13.5678 2.24426 13.4695 2.18808L13.4534 2.21623ZM13.7423 2.38744L13.471 2.18907L13.4519 2.21524L13.7232 2.41362L13.7423 2.38744ZM14.6808 14.4411L11.6243 14.8007L11.628 14.8329L14.6845 14.4733L14.6808 14.4411ZM15.9734 12.8037C16.0686 13.6128 15.4899 14.3459 14.6808 14.4411L14.6845 14.4733C15.5114 14.376 16.1029 13.6268 16.0056 12.8L15.9734 12.8037ZM15.4063 7.98317L15.9734 12.8037L16.0056 12.8L15.4385 7.97938L15.4063 7.98317ZM11.6403 14.8246L15.4366 7.98915L15.4083 7.97341L11.612 14.8089L11.6403 14.8246Z" fill="#C0937B"/>
</svg>
