<svg width="58" height="49" viewBox="0 0 58 49" fill="none" xmlns="http://www.w3.org/2000/svg">
<path d="M21.5691 45.4981L26.7235 24.4755C27.5187 20.1876 24.9045 19.7802 20.6015 22.4655L21.004 20.1877C18.4806 19.2294 7.92668 26.1309 8.9321 25.0813C11.1077 15.944 19.3838 15.7219 23.2019 16.1157C24.2258 16.2213 17.7981 12.8856 14.06 13.3528L16.624 11.8088C14.755 9.93981 9.48153 11.2594 9.48153 11.2594C9.98149 10.2595 11.3331 9.69214 11.6254 9.61847C10.7651 9.66346 0.141373 9.61119 0.141373 9.61119C17.7228 -0.749294 28.7786 18.0678 28.7786 18.0678C29.5617 11.6002 23.5005 7.17467 23.5005 7.17467C23.5005 7.17467 24.8132 6.3554 26.6942 7.00555C23.5055 0.787333 17.7075 3.08838 17.7075 3.08838C22.1761 -1.9297 28.4328 1.97632 30.5364 5.62107C31.9942 8.75221 32.6559 13.0769 32.2572 15.1479C32.9261 12.9876 35.8451 5.44679 44.1669 4.71471C44.1669 4.71471 38.842 6.99141 37.499 9.9209L39.5521 9.28537C39.5521 9.28537 35.8963 12.3023 35.5448 14.6555C38.6246 10.6498 52.0036 5.61066 57.2882 19.7756C57.2882 19.7756 53.1121 14.4248 48.2644 13.5912C49.2044 14.1082 51.1882 15.3615 51.6036 16.2384C51.6036 16.2384 44.5048 13.9469 42.6981 14.5062C42.6981 14.5062 45.7765 15.4386 45.9854 15.8228C45.9854 15.8228 39.9203 15.507 35.6289 18.7066C39.3355 17.3075 53.2945 13.5604 57.1517 30.6731C55.1053 26.3144 51.762 24.0204 48.189 22.9417C48.189 22.9417 51.2025 26.2418 50.6149 26.1271C44.258 21.7457 39.4139 21.6829 36.3425 22.4656C55.1533 26.2522 51.4423 44.4995 47.7702 48.3359C48.463 41.7053 46.9868 37.0045 44.5593 33.3111C45.2457 35.5285 44.5163 37.8241 44.5163 37.8241C41.7435 27.7032 33.6424 25.0813 33.6424 25.0813C35.4035 25.886 44.3243 37.1636 32.6866 46.7054C32.4099 46.8765 35.3638 42.0207 35.0798 37.8653C35.0798 37.8653 34.6986 40.4131 32.7217 41.295C34.1302 38.1949 34.2942 35.432 33.9337 33.1805C33.9337 33.1805 33.5644 35.0046 32.2895 36.1192C33.4294 29.9168 32.2311 27.9674 32.2311 27.9674C31.5795 31.005 29.6336 34.3472 27.5 45.4981L21.5691 45.4981Z" fill="#C0937B"/>
</svg>
