<svg width="71" height="26" viewBox="0 0 71 26" fill="none" xmlns="http://www.w3.org/2000/svg">
<path d="M10.2183 20.1128C19.4254 14.6969 38.0222 10.7044 65.8603 18.0792" stroke="#556B2F"/>
<path d="M10.6041 20.3105C8.1069 18.7622 2.84609 15.1246 1.78009 12.9602C1.78009 12.9602 11.1402 17.8374 10.6041 20.3105Z" fill="#556B2F"/>
<path d="M11.5773 19.572C9.49529 17.2407 5.34611 11.93 5.40564 9.3369C5.40564 9.3369 13.7938 17.0908 11.5773 19.572Z" fill="#556B2F"/>
<path d="M13.5089 18.6097C11.954 15.3421 9.20316 8.03348 10.6391 4.9399C10.6391 4.9399 17.7608 16.1415 13.5089 18.6097Z" fill="#556B2F"/>
<path d="M16.6705 17.2387C15.9757 13.8828 15.2121 6.40155 17.7165 3.32338C17.7165 3.32338 22.0464 14.8885 16.6705 17.2387Z" fill="#556B2F"/>
<path d="M20.7374 16.1777C20.788 12.9149 21.6454 5.77615 24.6697 3.32338C24.6697 3.32338 26.3295 14.9004 20.7374 16.1777Z" fill="#556B2F"/>
<path d="M25.0159 15.2531C25.5832 12.0772 27.5823 5.17994 31.04 2.99806C31.04 2.99806 30.8942 14.3934 25.0159 15.2531Z" fill="#556B2F"/>
<path d="M29.9118 14.6727C30.8283 11.8813 33.5246 5.86052 36.9782 4.10862C36.9782 4.10862 35.4293 14.2265 29.9118 14.6727Z" fill="#556B2F"/>
<path d="M33.8952 14.0672C35.7109 11.8076 40.3073 7.04047 44.1682 6.04846C44.1682 6.04846 39.2634 14.5011 33.8952 14.0672Z" fill="#556B2F"/>
<path d="M39.7662 13.7301C41.7513 11.7615 46.6626 7.648 50.4264 6.94373C50.4264 6.94373 44.7819 14.4068 39.7662 13.7301Z" fill="#556B2F"/>
<path d="M45.2378 14.0903C47.1755 12.479 51.8989 9.14334 55.29 8.69114C55.29 8.69114 49.6059 14.8759 45.2378 14.0903Z" fill="#556B2F"/>
<path d="M49.8423 14.4697C51.6331 13.2599 55.9344 10.7889 58.8136 10.5827C58.8136 10.5827 53.4039 15.3082 49.8423 14.4697Z" fill="#556B2F"/>
<path d="M54.2087 14.9204C56.1453 14.1101 60.6836 12.5281 63.3434 12.6826C63.3434 12.6826 57.2134 16.028 54.2087 14.9204Z" fill="#556B2F"/>
<path d="M59.0055 15.849C60.4936 15.3741 64.0064 14.4833 66.1527 14.7198C66.1527 14.7198 61.5057 16.7706 59.0055 15.849Z" fill="#556B2F"/>
<path d="M62.8127 16.7706C63.9566 16.4055 66.6569 15.7207 68.3068 15.9025C68.3068 15.9025 64.7346 17.479 62.8127 16.7706Z" fill="#556B2F"/>
<path d="M65.539 17.6187C66.3692 17.3538 68.3288 16.8568 69.5261 16.9888C69.5261 16.9888 66.9338 18.1328 65.539 17.6187Z" fill="#556B2F"/>
</svg>
