<svg width="22" height="22" viewBox="0 0 22 22" fill="none" xmlns="http://www.w3.org/2000/svg">
<path fill-rule="evenodd" clip-rule="evenodd" d="M8.77021 1.7835C4.90617 1.7835 1.77375 4.93313 1.77375 8.8184C1.77375 12.7037 4.90617 15.8533 8.77021 15.8533C12.6343 15.8533 15.7667 12.7037 15.7667 8.8184C15.7667 4.93313 12.6343 1.7835 8.77021 1.7835ZM0 8.8184C0 3.94813 3.92656 0 8.77021 0C13.6139 0 17.5404 3.94813 17.5404 8.8184C17.5404 13.6887 13.6139 17.6368 8.77021 17.6368C3.92656 17.6368 0 13.6887 0 8.8184Z" fill="#502C1A"/>
<path fill-rule="evenodd" clip-rule="evenodd" d="M13.9243 14.0011C14.2707 13.6529 14.8322 13.6529 15.1785 14.0011L21.0919 18.8071C21.4898 19.2073 21.4898 20.0076 20.6939 20.8078C19.898 21.6081 19.0505 21.5562 18.7041 21.208L13.9243 15.2622C13.578 14.914 13.578 14.3494 13.9243 14.0011Z" fill="#502C1A"/>
<path fill-rule="evenodd" clip-rule="evenodd" d="M15.6553 12.6848C16.1442 12.7141 16.517 13.1363 16.4879 13.628C16.4411 14.4192 16.2836 15.1861 15.7196 15.7478C15.1722 16.2931 14.4044 16.4776 13.6063 16.5741C13.1199 16.6329 12.6783 16.2842 12.6198 15.7952C12.5614 15.3062 12.9082 14.8622 13.3945 14.8034C14.1341 14.7139 14.3739 14.5778 14.4713 14.4808C14.5522 14.4002 14.677 14.2032 14.7173 13.522C14.7464 13.0304 15.1663 12.6555 15.6553 12.6848Z" fill="#502C1A"/>
</svg>
