<svg width="21" height="12" viewBox="0 0 21 12" fill="none" xmlns="http://www.w3.org/2000/svg">
<path fill-rule="evenodd" clip-rule="evenodd" d="M4.56291 3.62359C4.28739 3.3204 4.30821 2.84869 4.63181 2.59748C5.99056 1.54269 7.60905 0.873525 9.31596 0.660814C9.72249 0.610154 10.0703 0.929436 10.0894 1.33867L10.1426 2.4823C10.1616 2.89153 9.84413 3.23465 9.43927 3.29722C8.96636 3.37031 8.50393 3.49187 8.05901 3.65899L7.77809 3.4217C7.28811 3.00781 6.56725 3.02121 6.09299 3.45302C5.74001 3.77439 5.60513 4.25327 5.70995 4.69412C5.56867 4.65952 5.43707 4.58554 5.33286 4.47087L4.56291 3.62359ZM6.56421 6.06792C5.49198 7.10023 4.82486 8.55037 4.82486 10.1563C4.82486 10.5074 4.85674 10.851 4.91777 11.1845H16.0812C16.1422 10.851 16.1741 10.5074 16.1741 10.1563C16.1741 7.02232 13.6335 4.48171 10.4995 4.48171C10.0551 4.48171 9.62273 4.53278 9.2078 4.62937L11.9651 6.95848C12.8614 7.71552 12.9101 9.08014 12.0701 9.89915C11.1935 10.7538 9.76008 10.6202 9.05664 9.61817L6.56421 6.06792ZM1.00541 8.96047C0.954218 9.36693 1.27305 9.7152 1.68225 9.73477L2.82581 9.78944C3.23502 9.809 3.57855 9.49199 3.64165 9.08721C3.81256 7.99085 4.24402 6.95112 4.89958 6.05588C5.14162 5.72535 5.12347 5.25825 4.82065 4.98234L3.97437 4.21128C3.67154 3.93537 3.19981 3.95557 2.94817 4.27885C1.89161 5.63622 1.22034 7.25384 1.00541 8.96047ZM11.695 0.662325C11.2886 0.611135 10.9403 0.929964 10.9207 1.33917L10.866 2.48273C10.8465 2.89194 11.1635 3.23547 11.5683 3.29857C12.6646 3.46948 13.7044 3.90094 14.5996 4.5565C14.9301 4.79854 15.3972 4.78039 15.6731 4.47756L16.4442 3.63129C16.7201 3.32846 16.6999 2.85672 16.3766 2.60509C15.0193 1.54853 13.4016 0.877258 11.695 0.662325ZM17.032 4.21976C17.3352 3.94424 17.8069 3.96506 18.0581 4.28867C19.1129 5.64741 19.7821 7.2659 19.9948 8.97281C20.0455 9.37934 19.7262 9.72719 19.317 9.74622L18.1733 9.79941C17.7641 9.81844 17.421 9.50098 17.3584 9.09612C17.1889 7.99954 16.7588 6.95924 16.1044 6.06315C15.8628 5.73231 15.8816 5.26523 16.1848 4.98972L17.032 4.21976ZM7.25915 4.35599L11.2098 7.69306C11.6515 8.0662 11.678 8.73795 11.2669 9.14464C10.8318 9.57517 10.1134 9.5083 9.76515 9.00486L6.82342 4.75166C6.73585 4.62505 6.75959 4.45249 6.87811 4.35424C6.98879 4.26248 7.14932 4.26322 7.25915 4.35599Z" fill="#8B3A3A"/>
<path d="M4.63181 2.59748L4.60907 2.56818L4.63181 2.59748ZM4.56291 3.62359L4.53546 3.64853L4.56291 3.62359ZM9.31596 0.660814L9.32054 0.697619L9.31596 0.660814ZM10.0894 1.33867L10.0523 1.34039L10.0894 1.33867ZM10.1426 2.4823L10.1796 2.48057V2.48057L10.1426 2.4823ZM9.43927 3.29722L9.44493 3.33387L9.43927 3.29722ZM8.05901 3.65899L8.03508 3.68732L8.05169 3.70136L8.07205 3.69371L8.05901 3.65899ZM7.77809 3.4217L7.80202 3.39336L7.77809 3.4217ZM6.09299 3.45302L6.11796 3.48044L6.09299 3.45302ZM5.70995 4.69412L5.70112 4.73014L5.76007 4.74458L5.74603 4.68554L5.70995 4.69412ZM5.33286 4.47087L5.36031 4.44593L5.33286 4.47087ZM6.56421 6.06792L6.59456 6.04661L6.56968 6.01117L6.53849 6.0412L6.56421 6.06792ZM4.91777 11.1845L4.88128 11.1911L4.88685 11.2216H4.91777V11.1845ZM16.0812 11.1845V11.2216H16.1121L16.1176 11.1911L16.0812 11.1845ZM9.2078 4.62937L9.19939 4.59324L9.1274 4.61L9.18387 4.6577L9.2078 4.62937ZM11.9651 6.95848L11.9412 6.98681L11.9651 6.95848ZM12.0701 9.89915L12.0442 9.87259L12.0701 9.89915ZM9.05664 9.61817L9.087 9.59686L9.05664 9.61817ZM1.68225 9.73477L1.68402 9.69772L1.68225 9.73477ZM1.00541 8.96047L0.96861 8.95584L1.00541 8.96047ZM2.82581 9.78944L2.82404 9.82649L2.82581 9.78944ZM3.64165 9.08721L3.605 9.0815L3.64165 9.08721ZM4.89958 6.05588L4.86966 6.03397L4.89958 6.05588ZM4.82065 4.98234L4.84563 4.95492L4.82065 4.98234ZM3.97437 4.21128L3.94939 4.2387L3.97437 4.21128ZM2.94817 4.27885L2.9189 4.25607L2.94817 4.27885ZM10.9207 1.33917L10.9578 1.34094L10.9207 1.33917ZM11.695 0.662325L11.6996 0.625527L11.695 0.662325ZM10.866 2.48273L10.829 2.48096L10.866 2.48273ZM11.5683 3.29857L11.5626 3.33521L11.5683 3.29857ZM14.5996 4.5565L14.5777 4.58642L14.5996 4.5565ZM15.6731 4.47756L15.7006 4.50254L15.6731 4.47756ZM16.4442 3.63129L16.4168 3.60631L16.4442 3.63129ZM16.3766 2.60509L16.3994 2.57582L16.3766 2.60509ZM18.0581 4.28867L18.0288 4.31141L18.0581 4.28867ZM17.032 4.21976L17.0071 4.19231L17.032 4.21976ZM19.9948 8.97281L19.958 8.9774L19.9948 8.97281ZM19.317 9.74622L19.3152 9.70917L19.317 9.74622ZM18.1733 9.79941L18.175 9.83646L18.1733 9.79941ZM17.3584 9.09612L17.3217 9.10178L17.3584 9.09612ZM16.1044 6.06315L16.0745 6.08502L16.1044 6.06315ZM16.1848 4.98972L16.1598 4.96227L16.1848 4.98972ZM11.2098 7.69306L11.2337 7.66473L11.2098 7.69306ZM7.25915 4.35599L7.23522 4.38433L7.25915 4.35599ZM11.2669 9.14464L11.293 9.17101L11.2669 9.14464ZM9.76515 9.00486L9.79566 8.98376L9.76515 9.00486ZM6.82342 4.75166L6.79292 4.77276L6.82342 4.75166ZM6.87811 4.35424L6.90178 4.38279L6.87811 4.35424ZM4.60907 2.56818C4.26687 2.83383 4.24673 3.33081 4.53546 3.64853L4.59035 3.59865C4.32805 3.31 4.34954 2.86356 4.65456 2.62678L4.60907 2.56818ZM9.31137 0.62401C7.59785 0.837545 5.97309 1.50931 4.60907 2.56818L4.65456 2.62678C6.00804 1.57608 7.62026 0.909504 9.32054 0.697619L9.31137 0.62401ZM10.1264 1.33694C10.1065 0.908086 9.74125 0.570439 9.31137 0.62401L9.32054 0.697619C9.70372 0.649868 10.0342 0.950785 10.0523 1.34039L10.1264 1.33694ZM10.1796 2.48057L10.1264 1.33694L10.0523 1.34039L10.1055 2.48402L10.1796 2.48057ZM9.44493 3.33387C9.86605 3.26879 10.1996 2.91114 10.1796 2.48057L10.1055 2.48402C10.1235 2.87192 9.82222 3.2005 9.4336 3.26057L9.44493 3.33387ZM8.07205 3.69371C8.51459 3.52748 8.97456 3.40657 9.44493 3.33387L9.4336 3.26057C8.95817 3.33405 8.49326 3.45626 8.04597 3.62427L8.07205 3.69371ZM7.75416 3.45003L8.03508 3.68732L8.08294 3.63065L7.80202 3.39336L7.75416 3.45003ZM6.11796 3.48044C6.57846 3.06117 7.27839 3.04816 7.75416 3.45003L7.80202 3.39336C7.29782 2.96747 6.55604 2.98125 6.06802 3.42559L6.11796 3.48044ZM5.74603 4.68554C5.64424 4.25743 5.77525 3.79246 6.11796 3.48044L6.06802 3.42559C5.70477 3.75632 5.56602 4.24911 5.67386 4.7027L5.74603 4.68554ZM5.30542 4.49581C5.41486 4.61625 5.55308 4.69389 5.70112 4.73014L5.71877 4.65809C5.58427 4.62516 5.45928 4.55483 5.36031 4.44593L5.30542 4.49581ZM4.53546 3.64853L5.30542 4.49581L5.36031 4.44593L4.59035 3.59865L4.53546 3.64853ZM4.86195 10.1563C4.86195 8.56086 5.52466 7.12025 6.58993 6.09464L6.53849 6.0412C5.45929 7.08022 4.78777 8.53988 4.78777 10.1563H4.86195ZM4.95425 11.1778C4.89362 10.8465 4.86195 10.5051 4.86195 10.1563H4.78777C4.78777 10.5096 4.81986 10.8555 4.88128 11.1911L4.95425 11.1778ZM16.0812 11.1474H4.91777V11.2216H16.0812V11.1474ZM16.137 10.1563C16.137 10.5051 16.1053 10.8465 16.0447 11.1778L16.1176 11.1911C16.1791 10.8555 16.2112 10.5096 16.2112 10.1563H16.137ZM10.4995 4.5188C13.613 4.5188 16.137 7.0428 16.137 10.1563H16.2112C16.2112 7.00183 13.6539 4.44462 10.4995 4.44462V4.5188ZM9.21621 4.66549C9.6284 4.56954 10.058 4.5188 10.4995 4.5188V4.44462C10.0523 4.44462 9.61706 4.49602 9.19939 4.59324L9.21621 4.66549ZM11.9891 6.93014L9.23174 4.60103L9.18387 4.6577L11.9412 6.98681L11.9891 6.93014ZM12.096 9.9257C12.9517 9.09141 12.902 7.70131 11.9891 6.93014L11.9412 6.98681C12.8207 7.72972 12.8685 9.06888 12.0442 9.87259L12.096 9.9257ZM9.02629 9.63948C9.74286 10.6602 11.2031 10.7963 12.096 9.9257L12.0442 9.87259C11.184 10.7113 9.77731 10.5802 9.087 9.59686L9.02629 9.63948ZM6.53385 6.08923L9.02629 9.63948L9.087 9.59686L6.59456 6.04661L6.53385 6.08923ZM1.68402 9.69772C1.29444 9.67909 0.993957 9.34822 1.04221 8.9651L0.96861 8.95584C0.914479 9.38565 1.25165 9.75131 1.68048 9.77181L1.68402 9.69772ZM2.82758 9.75239L1.68402 9.69772L1.68048 9.77181L2.82404 9.82649L2.82758 9.75239ZM3.605 9.0815C3.54444 9.47003 3.21546 9.77094 2.82758 9.75239L2.82404 9.82649C3.25458 9.84707 3.61266 9.51396 3.6783 9.09292L3.605 9.0815ZM4.86966 6.03397C4.2106 6.93399 3.77683 7.97928 3.605 9.0815L3.6783 9.09292C3.84829 8.00242 4.27745 6.96825 4.92951 6.07779L4.86966 6.03397ZM4.79567 5.00976C5.08271 5.27128 5.10198 5.7167 4.86966 6.03397L4.92951 6.07779C5.18126 5.73399 5.16424 5.24522 4.84563 4.95492L4.79567 5.00976ZM3.94939 4.2387L4.79567 5.00976L4.84563 4.95492L3.99935 4.18386L3.94939 4.2387ZM2.97744 4.30163C3.21462 3.99692 3.66109 3.97602 3.94939 4.2387L3.99935 4.18386C3.682 3.89472 3.18499 3.91422 2.9189 4.25607L2.97744 4.30163ZM1.04221 8.9651C1.25631 7.26509 1.92498 5.65374 2.97744 4.30163L2.9189 4.25607C1.85825 5.61871 1.18438 7.24259 0.96861 8.95584L1.04221 8.9651ZM10.9578 1.34094C10.9764 0.95136 11.3073 0.650874 11.6904 0.699123L11.6996 0.625527C11.2698 0.571396 10.9042 0.908567 10.8837 1.3374L10.9578 1.34094ZM10.9031 2.4845L10.9578 1.34094L10.8837 1.3374L10.829 2.48096L10.9031 2.4845ZM11.574 3.26192C11.1854 3.20135 10.8845 2.87237 10.9031 2.4845L10.829 2.48096C10.8084 2.9115 11.1415 3.26958 11.5626 3.33521L11.574 3.26192ZM14.6215 4.52658C13.7215 3.86751 12.6762 3.43374 11.574 3.26192L11.5626 3.33521C12.6531 3.50521 13.6872 3.93437 14.5777 4.58642L14.6215 4.52658ZM15.6457 4.45258C15.3842 4.73962 14.9388 4.7589 14.6215 4.52658L14.5777 4.58642C14.9215 4.83818 15.4103 4.82116 15.7006 4.50254L15.6457 4.45258ZM16.4168 3.60631L15.6457 4.45258L15.7006 4.50254L16.4716 3.65627L16.4168 3.60631ZM16.3539 2.63435C16.6586 2.87153 16.6795 3.318 16.4168 3.60631L16.4716 3.65627C16.7608 3.33891 16.7413 2.84191 16.3994 2.57582L16.3539 2.63435ZM11.6904 0.699123C13.3904 0.913223 15.0017 1.58189 16.3539 2.63435L16.3994 2.57582C15.0368 1.51517 13.4129 0.841293 11.6996 0.625527L11.6904 0.699123ZM18.0874 4.26592C17.8218 3.92372 17.3248 3.90358 17.0071 4.19231L17.057 4.24721C17.3456 3.9849 17.7921 4.00639 18.0288 4.31141L18.0874 4.26592ZM20.0316 8.96822C19.8181 7.2547 19.1463 5.62994 18.0874 4.26592L18.0288 4.31141C19.0795 5.66489 19.7461 7.27711 19.958 8.9774L20.0316 8.96822ZM19.3187 9.78327C19.7475 9.76333 20.0852 9.39811 20.0316 8.96822L19.958 8.9774C20.0058 9.36057 19.7048 9.69106 19.3152 9.70917L19.3187 9.78327ZM18.175 9.83646L19.3187 9.78327L19.3152 9.70917L18.1716 9.76236L18.175 9.83646ZM17.3217 9.10178C17.3868 9.5229 17.7445 9.85648 18.175 9.83646L18.1716 9.76236C17.7837 9.7804 17.4551 9.47907 17.3951 9.09045L17.3217 9.10178ZM16.0745 6.08502C16.7254 6.97633 17.1532 8.01106 17.3217 9.10178L17.3951 9.09045C17.2247 7.98801 16.7923 6.94216 16.1344 6.04128L16.0745 6.08502ZM16.1598 4.96227C15.8408 5.25215 15.8232 5.7409 16.0745 6.08502L16.1344 6.04128C15.9025 5.72371 15.9223 5.27832 16.2097 5.01716L16.1598 4.96227ZM17.0071 4.19231L16.1598 4.96227L16.2097 5.01716L17.057 4.24721L17.0071 4.19231ZM11.2337 7.66473L7.28309 4.32766L7.23522 4.38433L11.1858 7.72139L11.2337 7.66473ZM11.293 9.17101C11.7195 8.74899 11.6921 8.05193 11.2337 7.66473L11.1858 7.72139C11.6109 8.08047 11.6364 8.72691 11.2408 9.11828L11.293 9.17101ZM9.73465 9.02596C10.096 9.54837 10.8414 9.61776 11.293 9.17101L11.2408 9.11828C10.8221 9.53258 10.1307 9.46823 9.79566 8.98376L9.73465 9.02596ZM6.79292 4.77276L9.73465 9.02596L9.79566 8.98376L6.85393 4.73056L6.79292 4.77276ZM6.85444 4.32569C6.72111 4.43622 6.6944 4.63032 6.79292 4.77276L6.85393 4.73056C6.77729 4.61977 6.79807 4.46877 6.90178 4.38279L6.85444 4.32569ZM7.28309 4.32766C7.15953 4.22329 6.97895 4.22246 6.85444 4.32569L6.90178 4.38279C6.99864 4.3025 7.13911 4.30314 7.23522 4.38433L7.28309 4.32766Z" fill="#C0937B"/>
</svg>
