<svg width="13" height="10" viewBox="0 0 13 10" fill="none" xmlns="http://www.w3.org/2000/svg">
<path fill-rule="evenodd" clip-rule="evenodd" d="M12.6593 6.63642L12.6593 6.66509H12.6593V8.24021C12.6593 9.05199 12.0012 9.71007 11.1894 9.71007H2.16029C1.34851 9.71007 0.69043 9.05199 0.69043 8.24021V6.56038H0.691414C0.704543 5.81015 0.858654 5.06875 1.14604 4.37495C1.44678 3.64889 1.88759 2.98917 2.4433 2.43346C2.999 1.87776 3.65872 1.43695 4.38478 1.1362C5.11085 0.835456 5.88904 0.680664 6.67492 0.680664C7.46081 0.680664 8.239 0.835456 8.96506 1.1362C9.69113 1.43695 10.3508 1.87776 10.9066 2.43346C11.4623 2.98917 11.9031 3.64888 12.2038 4.37495C12.4912 5.06875 12.6453 5.81015 12.6584 6.56038H12.6593V6.63642ZM6.95026 2.79857C7.76793 2.8341 8.5076 3.1192 9.17534 3.60349C9.23931 3.64526 9.29751 3.69485 9.34851 3.75104C9.35685 3.76019 9.36501 3.76951 9.37296 3.77901L9.37289 3.77906L9.373 3.77919C9.29682 3.83794 9.2212 3.89605 9.14608 3.95378L9.1457 3.95408L9.14559 3.95416L8.97528 4.08513C8.83894 4.19035 8.70405 4.29519 8.57012 4.40155C8.50351 4.45414 8.45779 4.42322 8.40907 4.39026L8.3913 4.37841C8.03673 4.14763 7.63766 3.99027 7.21863 3.91603C5.56751 3.61343 3.92894 4.72402 3.63929 6.34327C3.63699 6.35605 3.63489 6.36889 3.63278 6.38172L3.63278 6.38173C3.62708 6.41646 3.62139 6.4512 3.61194 6.48499C3.53325 6.76589 3.25763 6.93869 2.97906 6.88266C2.83839 6.85678 2.71375 6.77785 2.63199 6.66289C2.56975 6.57538 2.53616 6.47232 2.53429 6.36719C2.5337 6.33422 2.53624 6.30104 2.54198 6.26807C2.62364 5.73845 2.791 5.23521 3.08509 4.78367C3.92451 3.48799 5.13634 2.8246 6.69991 2.79531C6.78416 2.79382 6.86761 2.79492 6.95026 2.79857ZM9.96816 3.68791L9.96444 3.68407C9.96116 3.68028 9.95743 3.67644 9.95364 3.67261L9.95053 3.66926L9.9423 3.66043L9.94196 3.6607L9.51114 3.99339L6.75643 6.11696C6.71532 6.14864 6.67385 6.17997 6.63236 6.21131L6.63236 6.21132L6.63228 6.21137L6.63221 6.21143L6.63218 6.21145C6.52272 6.29414 6.41313 6.37693 6.30975 6.46655C6.25089 6.51553 6.20309 6.57596 6.16939 6.644C6.13569 6.71204 6.11683 6.78619 6.11402 6.86175C6.11121 6.93731 6.12449 7.01261 6.15304 7.08287C6.18159 7.15313 6.22476 7.2168 6.27983 7.26985C6.50668 7.49652 6.87097 7.48676 7.10151 7.24346L7.10901 7.2353C7.13146 7.21099 7.15256 7.18559 7.17335 7.15989L7.20171 7.12479L7.20718 7.11801C7.86236 6.30507 8.51716 5.49177 9.1716 4.67811L9.96816 3.68791ZM9.85954 4.26164C9.8245 4.26955 9.80693 4.29363 9.78953 4.31748C9.78896 4.31827 9.78838 4.31905 9.78781 4.31984C9.78411 4.32475 9.78037 4.32963 9.77645 4.33432C9.69069 4.43981 9.60524 4.54551 9.5201 4.65142C9.4341 4.75792 9.34836 4.86443 9.26286 4.97094C9.21214 5.03411 9.18759 5.06472 9.18871 5.09892C9.18872 5.13109 9.21163 5.16578 9.25699 5.23342C9.49408 5.58639 9.65338 5.98383 9.72472 6.40041C9.73182 6.44787 9.74295 6.49466 9.75798 6.54032C9.79975 6.658 9.88239 6.75761 9.9915 6.8218C10.1006 6.88598 10.2293 6.91068 10.3551 6.89158C10.4809 6.87248 10.5959 6.8108 10.68 6.71728C10.7641 6.62376 10.812 6.50433 10.8154 6.3798C10.8154 6.37141 10.8154 6.36303 10.8153 6.35465C10.8144 6.28942 10.8075 6.22438 10.7946 6.16034C10.6764 5.51907 10.4033 4.91471 9.99809 4.39757C9.99021 4.3876 9.98258 4.37722 9.97493 4.36681L9.97491 4.36678C9.94346 4.32398 9.91153 4.28054 9.85954 4.26164Z" fill="#556B2F"/>
</svg>
